<svg id="Layer_1" data-name="Layer 1" xmlns="http://www.w3.org/2000/svg" viewBox="0 0 50 50"><defs><style>.cls-1{fill:#0073a5;}.cls-2,.cls-3{fill:#fff;}.cls-2{fill-rule:evenodd;}</style></defs><title>logo</title><rect class="cls-1" width="50" height="50"/><path class="cls-2" d="M16.18,19,12.47,15.6a1.21,1.21,0,0,1-.42-.92,1.32,1.32,0,0,1,1.36-1.28h4.11V11.62H11.24A3.36,3.36,0,0,0,7.67,15a3.22,3.22,0,0,0,.94,2.27L13,21.39a1.33,1.33,0,0,1,.48,1.41c-.25.88-1.37.88-1.79.88h-4v3.6h6.07a4.33,4.33,0,0,0,4.45-4.2v0A5.14,5.14,0,0,0,16.18,19Z"/><path class="cls-2" d="M40.7,19,37,15.6a1.21,1.21,0,0,1-.42-.92,1.32,1.32,0,0,1,1.36-1.28H42V11.62H35.76A3.36,3.36,0,0,0,32.19,15a3.22,3.22,0,0,0,.94,2.27l4.37,4.13A1.33,1.33,0,0,1,38,22.8c-.25.88-1.37.88-1.79.88h-4v3.6h6.07a4.33,4.33,0,0,0,4.45-4.2v0A5.14,5.14,0,0,0,40.7,19Z"/><path class="cls-2" d="M31.34,22.73a4.55,4.55,0,0,0-3.15-4.41A3.21,3.21,0,0,0,30.61,15a3.22,3.22,0,0,0-1.35-2.63,5.65,5.65,0,0,0-2.94-.75H19.38V27.28h7.37a5.24,5.24,0,0,0,3-1.07,4.66,4.66,0,0,0,1.58-3.48Zm-8.21-9.31H24.8a1.94,1.94,0,0,1,2.13,1.7c.11,1.21-.72,2-2.05,2H23.13V13.42Zm2,10.26h-2V19.51h1.92a2.14,2.14,0,0,1,2.34,1.93A2.07,2.07,0,0,1,25.13,23.68Z"/><path class="cls-3" d="M9.64,29.31l3.51,6v-6H15v8.77H13.09L9.55,32.14v5.94H7.82V29.31Z"/><path class="cls-3" d="M22.7,29.31v1.41H18.16v2h4.38v1.56H18.16v2.35h4.7v1.41H16.44V29.31Z"/><path class="cls-3" d="M36.92,36a1.17,1.17,0,0,0,.43.5,1.81,1.81,0,0,0,.63.28,3.42,3.42,0,0,0,.79.1,4.56,4.56,0,0,0,.62-.05,1.88,1.88,0,0,0,.57-.17,1.36,1.36,0,0,0,.44-.35.91.91,0,0,0,.17-.56.89.89,0,0,0-.24-.64,1.8,1.8,0,0,0-.61-.37,7.3,7.3,0,0,0-.86-.27l-1-.23a6.91,6.91,0,0,1-1-.3,3.27,3.27,0,0,1-.85-.45,2.21,2.21,0,0,1-.61-.71,2.25,2.25,0,0,1-.23-1,2.32,2.32,0,0,1,.3-1.2,2.56,2.56,0,0,1,.76-.84,3.14,3.14,0,0,1,1.08-.5,4.52,4.52,0,0,1,1.2-.17,5.51,5.51,0,0,1,1.3.16A3.11,3.11,0,0,1,41,29.7a2.63,2.63,0,0,1,.8.92A2.59,2.59,0,0,1,42.06,32H40.39a1.52,1.52,0,0,0-.25-.76,1.57,1.57,0,0,0-.43-.43,1.86,1.86,0,0,0-.6-.22,4,4,0,0,0-.72-.07,2.14,2.14,0,0,0-.5.06,1.54,1.54,0,0,0-.48.18,1.18,1.18,0,0,0-.32.31,1.06,1.06,0,0,0-.15.52A.82.82,0,0,0,37,32a1.1,1.1,0,0,0,.42.41,3.57,3.57,0,0,0,.8.26c.34.07.92.17,1.48.31l.73.21a2.83,2.83,0,0,1,.88.39,2.48,2.48,0,0,1,.74.74,2.1,2.1,0,0,1,.32,1.2,2.71,2.71,0,0,1-.24,1.14,2.44,2.44,0,0,1-.7.9,3.4,3.4,0,0,1-1.17.6,5.56,5.56,0,0,1-1.61.21,5.28,5.28,0,0,1-1.38-.18,3.57,3.57,0,0,1-1.23-.57,2.7,2.7,0,0,1-1.14-2.37h1.85A2,2,0,0,0,36.92,36Z"/><polygon class="cls-3" points="32.75 29.31 31.45 35.58 31.43 35.58 29.98 29.31 28.21 29.31 26.76 35.42 26.74 35.42 25.44 29.31 23.61 29.31 25.79 38.08 27.7 38.08 29.08 31.98 29.11 31.98 30.48 38.08 32.4 38.08 34.58 29.31 32.75 29.31"/></svg>